<?xml version="1.0" encoding="UTF-8"?><svg id="Color_Outlined_" xmlns="http://www.w3.org/2000/svg" xmlns:xlink="http://www.w3.org/1999/xlink" viewBox="0 0 192 192"><defs><style>.cls-1{fill:url(#Orange-to-pink-gradient);}.cls-1,.cls-2{stroke-width:0px;}.cls-2{fill:#fff;}</style><linearGradient id="Orange-to-pink-gradient" x1="52.4946" y1="46.9523" x2="190.1068" y2="46.9523" gradientUnits="userSpaceOnUse"><stop offset=".1" stop-color="#ff712b"/><stop offset=".9" stop-color="#ff0f7b"/></linearGradient></defs><path class="cls-1" d="m96.1226,73.9255c-7.5543-2.011-15.4277-3.8995-22.5394-7.2207-7.0375-3.2865-12.6907-8.271-17.1071-14.6464-1.6608-2.3976-3.1307-4.9251-4.4385-7.5313-1.9502-3.8865-3.5505-7.9383-4.9764-12.0432-1.3338-3.84-2.7354-7.7541-3.6313-11.721-.011-.0485-.1522-.7841-.1494-.7838,7.8435.6638,15.8737.9567,23.2731,3.8887,10.5702,4.1885,18.9916,12.829,24.0245,22.9093,2.4364,4.8798,4.0231,10.0381,4.7439,15.4332.1295.9697.7757,11.2934.8006,11.7153Zm0,0c.3271-.0779,22.5854-5.4172,30.5175-13.4606,6.9301-7.0128,9.3218-19.2208,11.9179-28.5462.0407-.1557.0613-.3109.102-.5248-.1839.0386-.2864.0773-.3884.0969-8.0953,2.2735-18.3332,1.4915-24.9776,6.4455-9.8121,7.3244-17.1834,34.2753-17.1714,35.9892Z"/><path class="cls-2" d="m95.9122,85.2388h.0464c1.6567-.0254,2.9795-1.3887,2.9541-3.0459l-.0015-.0967c-.0249-1.6562-1.3916-2.8955-3.0444-2.9053-1.6562.0254-2.9785,1.4365-2.9531,3.0938.0249,1.6406,1.3628,2.9541,2.9985,2.9541Z"/><path class="cls-2" d="m95.9933,88.9282c-1.6562.0254-2.9785,1.4365-2.9531,3.0938.0249,1.6406,1.3628,2.9541,2.9985,2.9541h.0464c1.6567-.0254,2.9795-1.3887,2.9541-3.0459l-.0015-.0967c-.0249-1.6562-1.3682-2.9277-3.0444-2.9053Z"/><path class="cls-2" d="m152.5396,102.1714h-53.5396v-.9014c0-1.6572-1.3433-3-3-3s-3,1.3428-3,3v.9014h-53.5396c-1.6567,0-3,1.3428-3,3s1.3433,3,3,3h33.2845l-8.7015,12.418c-.077.1099-.1321.2275-.1925.3438h-15.2069c-1.6567,0-3,1.3428-3,3v17.2305c0,1.6572,1.3433,3,3,3h5.6152v7.627h-5.6152c-1.6567,0-3,1.3428-3,3v17.2305c0,1.6572,1.3433,3,3,3h17.2305c1.6567,0,3-1.3428,3-3v-5.9941h15.5986v5.9941c0,1.6572,1.3433,3,3,3h17.23c1.6567,0,3-1.3428,3-3v-5.9941h15.5991v5.9941c0,1.6572,1.3433,3,3,3h17.23c1.6567,0,3-1.3428,3-3v-17.2305c0-1.6572-1.3433-3-3-3h-5.6147v-7.627h5.6147c1.6567,0,3-1.3428,3-3v-17.2305c0-1.6572-1.3433-3-3-3h-14.8973c-.0376-.0723-.064-.1475-.108-.2178l-7.8804-12.5439h31.8931c1.6567,0,3-1.3428,3-3s-1.3433-3-3-3Zm-72.4677,6h12.9281v12.7617h-5.5269c-1.6567,0-3,1.3428-3,3v5.2363h-15.5986v-5.0449c.0255-.0332.0586-.0571.083-.0918l11.1144-15.8613Zm10.4012,29.9922v-11.2305h11.23v11.2305h-11.23Zm-38.8291-11.2305h11.2305v11.2305h-11.2305v-11.2305Zm11.2305,42.0879h-11.2305v-11.2305h11.2305v11.2305Zm21.5986-14.2305v5.2363h-15.5986v-5.2363c0-1.6572-1.3433-3-3-3h-5.6152v-7.627h5.6152c1.6567,0,3-1.3428,3-3v-5.9941h15.5986v5.9941c0,1.6572,1.3433,3,3,3h5.5269v7.627h-5.5269c-1.6567,0-3,1.3428-3,3Zm17.23,14.2305h-11.23v-11.2305h11.23v11.2305Zm38.8291,0h-11.23v-11.2305h11.23v11.2305Zm-8.6147-17.2305h-5.6152c-1.6567,0-3,1.3428-3,3v5.2363h-15.5991v-5.2363c0-1.6572-1.3433-3-3-3h-5.7031v-7.627h5.7031c1.6567,0,3-1.3428,3-3v-5.9941h15.5991v5.9941c0,1.6572,1.3433,3,3,3h5.6152v7.627Zm-2.6152-24.8574h11.23v11.2305h-11.23v-11.2305Zm-15.6934-18.6846l9.7156,15.4648c-.0055.0742-.0222.1445-.0222.2197v5.2363h-15.5991v-5.2363c0-1.6572-1.3433-3-3-3h-5.7031v-12.7617h14.5706c.0149.0254.0227.0522.0383.0771Z"/></svg>